/* XPM */
static char *_e13fcc0d56b4878e99c95ccfe148ca1DcY0N3hAfkKk1HHU[] = {
/* columns rows colors chars-per-pixel */
"64 64 193 2 ",
"   c #010101",
".  c #0B0C05",
"X  c #090C09",
"o  c #150501",
"O  c #1A0501",
"+  c #160804",
"@  c #0D110B",
"#  c #12160D",
"$  c #151B0D",
"%  c #1E180E",
"&  c #1D140F",
"*  c #131B12",
"=  c #1B1B14",
"-  c #1A1719",
";  c #191E18",
":  c #240601",
">  c #290601",
",  c #290F0B",
"<  c #350B04",
"1  c #3D0C01",
"2  c #26130A",
"3  c #381707",
"4  c #361807",
"5  c #34130D",
"6  c #3A130C",
"7  c #311B08",
"8  c #3D1B0A",
"9  c #2D1E1D",
"0  c #221E12",
"q  c #311812",
"w  c #3D1911",
"e  c #17200F",
"r  c #18210E",
"t  c #162414",
"y  c #1A2415",
"u  c #1F2815",
"i  c #1E251C",
"p  c #1E2919",
"a  c #1E311B",
"s  c #3F200B",
"d  c #212A17",
"f  c #23241C",
"g  c #2F211F",
"h  c #232D1A",
"j  c #282E1F",
"k  c #292217",
"l  c #32231C",
"z  c #39211F",
"x  c #3C2919",
"c  c #352D16",
"v  c #263617",
"b  c #21361E",
"n  c #2A341D",
"m  c #27391A",
"M  c #2B3B1B",
"N  c #293114",
"B  c #323117",
"V  c #242423",
"C  c #292526",
"Z  c #262A21",
"A  c #2A2B25",
"S  c #2A2729",
"D  c #2D2C2A",
"F  c #312D2F",
"G  c #243622",
"H  c #263D23",
"J  c #2D3A23",
"K  c #2F322A",
"L  c #2D3D2A",
"P  c #2F3624",
"I  c #323E25",
"U  c #32342E",
"Y  c #323E2F",
"T  c #332F31",
"R  c #373534",
"E  c #393536",
"W  c #363C33",
"Q  c #3B3C36",
"!  c #3A3638",
"~  c #3E3C3B",
"^  c #440D01",
"/  c #4C0E01",
"(  c #520E01",
")  c #5E0D01",
"_  c #44170A",
"`  c #5C1101",
"'  c #5A150A",
"]  c #411B14",
"[  c #561F15",
"{  c #620D01",
"}  c #6B0D01",
"|  c #7A0F01",
" . c #611103",
".. c #611608",
"X. c #691D14",
"o. c #791F14",
"O. c #4A2F1D",
"+. c #432D1B",
"@. c #48311C",
"#. c #6B200C",
"$. c #722114",
"%. c #582823",
"&. c #522823",
"*. c #413D3E",
"=. c #493938",
"-. c #473131",
";. c #553938",
":. c #5A3A38",
">. c #563828",
",. c #673830",
"<. c #2F401E",
"1. c #2B4122",
"2. c #2F412C",
"3. c #334423",
"4. c #384A26",
"5. c #36432A",
"6. c #3A462D",
"7. c #374C29",
"8. c #3C4A2C",
"9. c #394223",
"0. c #3D502B",
"q. c #354232",
"w. c #3E4B31",
"e. c #3D433B",
"r. c #3B4736",
"t. c #404D32",
"y. c #42433D",
"u. c #4C493F",
"i. c #445135",
"p. c #495737",
"a. c #475538",
"s. c #495739",
"d. c #4C593A",
"f. c #515337",
"g. c #784033",
"h. c #674539",
"j. c #433D40",
"k. c #454242",
"l. c #494446",
"z. c #454943",
"x. c #494A44",
"c. c #4D474A",
"v. c #4E4A4B",
"b. c #504B4D",
"n. c #4E5B40",
"m. c #555E44",
"M. c #56534B",
"N. c #5A564B",
"B. c #555A4E",
"V. c #4F4D50",
"C. c #544D52",
"Z. c #555252",
"A. c #5A5756",
"S. c #595556",
"D. c #5C5956",
"F. c #5F5C58",
"G. c #5F5C5E",
"H. c #5F5C59",
"J. c #604940",
"K. c #6E574F",
"L. c #615D59",
"P. c #615E59",
"I. c #615E54",
"U. c #745950",
"Y. c #546240",
"T. c #65625C",
"R. c #66635E",
"E. c #64615C",
"W. c #696C5A",
"Q. c #656262",
"!. c #696661",
"~. c #6E6B61",
"^. c #6C6A64",
"/. c #6B6569",
"(. c #726E63",
"). c #757464",
"_. c #75746C",
"`. c #74736B",
"'. c #787668",
"]. c #7D7B6C",
"[. c #746E73",
"{. c #7F797F",
"}. c #767172",
"|. c #8F1101",
" X c #841F10",
".X c #803F33",
"XX c #9A4232",
"oX c #815347",
"OX c #848471",
"+X c #878871",
"@X c #8A8B75",
"#X c #8F9078",
"$X c #96987D",
/* pixels */
"N.N.N.N.N.c.j.c.V.G.G.G.G.V.V.V.j._._.N.c.c.~ H M d.OX#X].{.}.N.N.N.N.N.N.M.c.j.j.j.k.c.R.R.{.{.R.{.R.R.N.c.j.H 3.0.].$X'.{.{.N.",
"b.c.c.c.b.b.c.j.N.N._._._.N.N._._.b.c.c.j.k.c.R y d.OXb.c.c.c.b.N.N.N.b.c.c.c.k.2.c.v.b.c.c.c.c.N.R.c.c.c.j.c.j.* 3.$Xb.c.c.c.N.",
"c.c.c.b.b.c.c.c.c.c.b.c.c.c.N.b.b.c.c.c.c.c.k.j.D t.F.c.c.c.v.b.b.b.b.c.c.c.c.c.c.v.b.c.c.c.b.N.c.c.c.c.c.c.j.c.S v R.c.c.c.N.b.",
"j.c.j.c.c.c.c.c.c.c.c.c.c.j.c.j.c.c.c.c.c.c.c.~ y 3.L k.c.c.b.v.H L k.c.c.c.c.c.c.c.c.c.c.c.j.c.j.c.c.c.c.c.c.c.* 3.H j.c.c.c.S.",
"c.c.c.c.c.c.c.j.c.j.c.c.c.c.c.c.c.c.c.c.c.c.c.R y 5.k.c.c.c.k.H H H L k.c.c.c.c.c.c.k.c.c.c.c.c.c.c.c.c.c.c.c.j.* 3.j.c.c.S.H H ",
"c.c.H H j.c.c.H c.j.H H H c.c.c.c.c.H H c.c.k.b y 5.~ H 2.c.~ S S S A H 2.c.c.~ 2.c.~ H H H c.c.c.c.c.H H c.c.H   3.j.H H H H H ",
"S S S S * S *     * * * * S * S S S S S S V * y 4.4.N * * * * ; V ; S S S V * * @   X * * * S * S S S S S S *   3.0.  * * * S * ",
"0.3.v v v v 3.v 3.v v v v 3.3.v 3.3.v v 3.3.M 4.0.0.4.M 3.v M 3.M 3.3.M 3.v v v v v M 3.v 3.3.v 3.v v v v 3.0.0.0.0.v 3.v 3.v 3.",
"i.8.I J m M 4.M i.I I I I 6.6.m I 5.I J t.8.5.w.i.i.p.8.w.6.6.8.5.5.1.M 1.J J M M 3.8.t.5.t.t.m I m m J J 5.7.7.7.t.I 6.I 8.I 8.",
"N.M.v.k.L 3.0.i.^.b.M.D.b.b.b.2.R ! v.l.L.L.D.b.A.Z.(.~.E.~.F.L.D.x.2.H Y j.~ J 0.m.~.F.F.F.F.2.A H L k.k.k.2.L H c.c.c.b.M.M.N.",
"b.c.b.c.k.; 4.'.b.c.b.L.b.v.b.v.b.S Q B.Z.Z.v.c.c.c.v.v.c.c.v.b.N.A.k.q.j.k.~ y i.!.v.c.b.c.c.c.L A k.c.c.c.c.k.L c.c.c.c.c.b.N.",
"k.k.c.c.c.V v B.c.c.F.b.c.b.c.b.b.T 2.q.D.S.c.c.c.c.c.v.c.v.b.b.c.c.c.k.k.c.E h i.F.v.c.M.c.c.c.k.2.c.c.c.c.k.c.k.c.c.c.c.c.M.b.",
"H 2.k.c.j.* M H c.k.c.c.c.c.c.c.c.c.b.C.k.k.c.c.c.c.c.v.v.v.c.k.l.c.y.L k.l.~ A 8.S.v.c.c.c.c.c.c.c.c.c.c.k.c.j.c.c.c.j.k.c.k.c.",
"2.k.c.k.~ * 3.H ~ c.k.c.k.c.c.c.c.b.v.~ c.l.*.*.c.l.~ c.c.k.e.q.c.c.~ 2.l.j.W y 5.~ c.c.k.k.k.c.c.c.c.c.c.c.c.k.c.c.c.k.c.j.c.~ ",
"j.H ~ ~ b t M H b R ~ ~ j.~ ~ j.j.v.H H R E R D ~ R G ! ~ G L j.j.j.W L R U p d 3.L ! j.b H H j.j.j.j.j.~ R ! ~ ! ! R ~ R R ~ b ",
"A A A t t v 3.M t t y D A D t D A D D D y d A t t @ t y Z d D D D D A Z y * $ M 7.3.h K p D K D A A A A y t @ t . # y p y y D y ",
"6.6.I I I I 8.6.I I 8.w.5.w.I w.I 6.5.i.i.t.6.I 3.m M M 3.s.i.i.i.6.I 5.6.5.5.I i.a.a.a.t.8.i.8.I I I I 6.J 3.v M 7.6.Y.d.t.t.t.",
"~.~.N.b.c.c.M.k.M.M.N.Q.Q.H.M.Q.A.A.b.^.^.R.b.l.~ J v 4.m.].~.(.W.N.M.M.M.M.c.k.b.F.F.F.b.M.M.N.N.M.M.M.v.k.L N 7.w.D.OXOXF.F.L.",
"N.N.b.c.c.c.c.2.c.v.b.^.^.M.N.^.^.^.^.b.c.c.c.k.l.! y t.].v.c.v.b.M.v.c.v.b.v.c.l.c.c.c.c.c.b.Z.b.c.c.v.b.c.k.; 4.H.].b.c.c.v.N.",
"z.v.c.c.c.c.c.c.c.b.b.c.c.c.M.b.v.b.v.c.c.c.c.c.l.j.A 6.M.c.c.b.M.x.c.c.b.v.c.c.c.c.k.c.c.c.C.b.b.k.k.z.c.c.c.V 4.v.!.c.c.c.C.z.",
"H ~ c.c.c.c.c.c.c.c.c.c.c.k.k.c.k.c.k.c.c.c.c.c.c.~ t M W l.v.v.e.2.c.l.c.c.c.c.c.k.Y j.k.c.k.c.v.L H 2.k.c.j.* v c.k.c.c.c.v.H ",
"H H ~ k.c.c.c.k.c.j.k.k.k.c.c.k.c.c.c.c.k.k.k.c.l.U y 5.j.k.k.z.H q.c.k.k.c.c.c.k.c.j.k.c.j.c.~ 2.~ 2.k.c.k.~ * v ~ c.k.c.c.H H ",
"V S H H j.~ R b ! T a b b ~ ! ~ ~ j.! ! b G L j.W a d 6.W b b G L ~ ~ H L ! j.W G E E ~ R R ~ b j.H j.H ~ ~ b t v b R j.~ R V S ",
"y A A A A t y t @ @ . t y t @ y y D . @ t y A A y p <.7.J y y h D K D D A d A t y # y y y y D y D D A A A t y v M t p K p p p D ",
"8.I I I I I 6.J 3.3.M J d.i.d.i.t.t.I 6.m m J 5.I i.i.d.s.t.t.i.w.8.5.6.5.3.1.M 5.5.4.4.4.6.6.6.6.6.I I J I i.5.t.J 7.3.d.n.t.8.",
"N.N.N.M.M.M.v.k.L m 3.v.+X+X+X^.F.L.b.c.2.5.e.c.S.(.^.^.!.L.F.D.M.~ l.b.k.2.H W j.Q 4.0.t.E.D.A.A.Z.A.A.l.A.^.L.L.k.L V (.[.b.M.",
"N.b.b.c.c.v.b.c.k.; M ).M.N.M.v.b.M.F.c.c.k.r.L.E.l.l.c.v.v.c.l.! ~ N.A.c.k.q.l.k.b p 7.D.OX(.`.^.F.^.^.F.^.c.b.b.c.k.c.c.b.c.c.",
"b.b.b.k.k.z.c.c.c.V 3.N.v.N.c.b.M.c.c.c.c.c.k.y.k.k.l.c.c.k.c.e.~ M.c.c.c.c.c.c.k.G y 3.W.c.c.F.b.c.b.b.c.c.b.c.c.c.c.c.k.c.c.c.",
"c.v.v.L H 2.k.c.j.* 4.M.b.b.v.b.c.c.c.c.c.l.Q q.k.q.c.c.k.q.y.q.k.c.c.c.c.l.l.c.c.! y v H c.k.c.c.c.c.c.c.b.C.k.c.c.c.c.L j.k.c.",
"~ H 2.~ 2.k.c.k.~ * 7.c.b.c.b.c.k.k.c.c.c.y.2.k.~ *.k.k.l.e.q.e.2.k.c.c.c.l.c.c.c.j.Z v H ~ c.k.c.c.c.c.b.v.~ c.j.c.c.c.j.k.c.j.",
"H H j.H j.H ~ ~ b * m R ~ j.j.j.H j.j.~ R U G D f t a G U J ~ H H L j.j.~ j.j.~ ~ F t N b b ~ j.~ j.j.j.v.H H R ~ ~ ~ ! R ~ ~ ~ ",
"S S S S S S S * * * * * * S S S S S S * * * @ X * * @ X * ; S S S S S V * S V * @ X * * * * S S S S S S S S S * S * *   * * S S ",
"c.v v * * u u h h h h S S j.c.c.c.v v * * * y d h h h d S F k.c.c.y.v N * * y u d h h u S S j.c.c.c.v v * * u u h h u h S S j.c.",
"c.c.j.v v * C C C C S j.c.N.N.N.c.c.j.v v N * y d j D F k.b.N.N.M.c.c.Q v N ; S D R R S j.c.N.N.N.c.c.j.v v * t r h D S j.c.N.N.",
"c.c.j.j.0.v * t D S j.c.N._.N.c.c.c.j.j.0.4.N * # d F k.b.I.~.M.c.c.c.j.y.4.N ; D U F j.c.N._.N.c.c.c.j.j.0.v * @ u S j.c.N._.N.",
"c.j.j.j.v 0.* D D * j.j.c.c.c.c.c.j.j.j.v M 3.* - e i j.k.c.c.c.c.c.j.j.Q M 3.; D C i j.j.c.c.c.c.c.j.j.j.v 0.* - u * j.j.c.c.c.",
"j.j.c.0.0.0.* D D * j.c.N.N.c.j.j.j.c.0.0.0.3.* # y i k.b.N.M.c.j.j.k.x.0.0.3.; D C i j.c.N.N.c.j.j.j.c.0.0.0.* @ u * j.c.N.N.c.",
"j.* * S S v * D D * j.S S * * j.j.* * S S A N * # y i ~ S V * i j.R * ; S A N ; S C i j.S S * * j.j.* * S S v * @ u * j.S S * * ",
"c.      S v * t D * j.S       c.c.      S A N @ X y i ~ 9 < / ] c.=.^ ^ , A N * y C i j.S       c.c.      S v * @ u * j.S       ",
"S j.*   S 3.* @   * S S   * j.S S j.*   S D m * d d ; S g ^ ( ' S z { / 6 D m @   X ; S S   * j.S S j.*   S 3.* u h * S S   * j.",
"  0.j.v v v * r r * j.j.j.j.c.*   0.j.v v v N t h d i j.j.-.}  .@ O  .) 3 v N * y y i j.*.j.j.c.*   0.j.v v v * h h * j.j.j.j.c.",
"  0.0.c.0.* u h h u.* c.c.c.c.    0.0.c.0.3.* t y D C V c.c.:.)   O  .[ x.3.t h A *.A * c.c.c.c.    0.0.c.0.* F ! F u.* c.c.c.c.",
"c.c.c.v * * @ u k.F * S j.c.N.N.c.c.c.v * * ; V y D C ; F k.:.|.o.:.X.y.N * t P y.F C * S j.c.N.N.c.c.c.v * * D D D D * S j.c.N.",
"c.j.S v * C @ h ! D D * S S c.j.c.j.S v * ; S D S D D C ; S T ;.X.;.' A N * - d E D F ! * S S c.j.c.j.S v * D D D D D D * S S c.",
"* * S 0.* C - u ! F D * j.S * * * * S 0.* ; D S D D D V i ~ V # O O > _ 3.* @ y y D S D * j.S * * * * S 0.* D D D D D F * j.S * ",
"c.c.0.v * D @ u C D D * S j.c.c.c.c.0.v * ; D S D D D V ; F k.:.| | #.4.N * # u i S D C * S j.c.c.c.c.0.v * C C D D C D * S j.c.",
"j.j.S * C t @ u t C D t * S j.j.j.j.S * C S D D D C 5 6 , & z } } } { < * t @ y t i S D C * S j.j.j.j.S * S C - D D t C D * S j.",
"- - - @ @   r h u @ - @ - - - - - - - @ @ X   X     . . . + : O > > > : o o 2 y $ @ @ @ - - - @ - - - - - @ - X X   @ @ - @ - - ",
"3.v v 3.v 3.v 0.0.0.0.0.3.0.3.v v 7 7 s 7 7 8 1 ^ ` ( ` ( ( ( ( / 1 1 1 1 1 ^ ( / 1 8 3.( v 3.v 3.v 3.3.3.3.3.v 3.v v v v 3.3.3.",
"N.N.N.N.N.c.j.c.R.R.R.b.N.N.N.N.N.N.N.c.j.-.4 c ` [ E.$X@XK..XR.U.XXoXN.b.c.b.M.b.N.N.N.G.G.G.V.G.V.V.j._._.N.c.j.H v 3.v $X'.].",
"N.b.c.c.b.b.c.j.c.c.c.c.c.c.S.b.c.c.c.b.c.c.R 0 ' g.).b.c.:.$.N.h. XJ.b.c.c.c.k.2.c.v.b._._.N.N._._._._.b.c.c.j.c.j.* v $Xb.c.c.",
"b.c.c.b.b.c.c.c.c.c.c.c.c.S.b.c.c.c.b.c.c.c.j.z ..,.^.c.c.v.b.b.:.o.b.c.c.c.c.c.c.v.b.b.c.c.c.N.b.b.b.b.c.c.c.c.j.c.S 3.R.c.c.c.",
"H c.j.c.c.c.c.c.c.H j.j.v.j.c.S.H H H j.c.c.R % _ %.k.c.c.b.v.H n w k.c.c.c.c.c.c.c.c.c.c.c.j.j.c.j.c.j.c.c.c.c.c.c.* v H j.c.c.",
"H c.c.c.c.c.c.c.c.j.j.c.j.c.j.H j.H c.c.j.j.R t B &.c.k.c.k.H H H H L k.c.c.c.c.c.c.k.c.c.c.c.c.j.c.c.c.c.c.c.c.c.j.* 3.j.c.c.S.",
"j.c.H H j.c.c.H c.j.c.j.j.j.H c.H c.H j.c.k.b t N l k.c.c.~ S S l 6 A H 2.c.c.~ 2.c.~ H H H c.c.c.c.c.c.c.H H c.c.H * 3.j.H H H ",
"~ j.H H R j.~ b ! R ~ R R ~ b j.H j.H ~ ~ W a y N k ! j.~ R V C 9 5 A n L j.~ U G E D a b b ~ ! ~ ~ j.! ! b H j.~ b t 4.~ b b b ",
"K D D D y D t y @ y y y y D y D D A A A t t u M v y d A y 0 k l 5 2 5 q A f = = $ @ @ . t y t @ y y D . @ t A D t y M 0.4.y y p ",
"w.5.6.6.3.3.m 5.5.4.4.4.6.6.6.6.6.I I J I 5.t.6.6.I 9.+.f.>.O.O.O.+.x x x x x x c 3.3.M J d.i.d.i.t.t.I 6.m J 5.J i.i.d.d.t.t.a.",
"~ k.b.c.2.H L k.~ 3.0.i.E.D.A.A.Z.A.A.l.A.F.!.L.S.~ J W (./.b.M.M.N.N.M.M.M.M.c.~ L M 3.v.+X+X+X^.F.L.b.c.2.Q l.v.(.^.^.^.L.F.F.",
"R M.F.c.c.2.k.c.H * 7.D.OX(.`.^.F.^.^.F.^.R.v.b.v.c.l.c.v.v.c.v.b.M.b.v.c.c.v.v.c.! y M ).M.N.M.v.b.M.F.c.c.2.D.(.c.l.c.c.b.c.c.",
"M.c.c.c.c.c.c.c.L * 3.W.c.c.F.b.c.b.b.c.c.v.v.c.c.c.c.c.k.c.c.v.b.b.b.v.k.k.z.c.c.*.A 3.N.v.N.c.b.M.c.c.c.c.l.y.k.k.k.c.c.k.v.k.",
"c.c.c.c.c.k.c.c.k.; v H c.k.c.c.c.c.c.c.b.b.b.k.c.c.c.k.Y j.k.l.k.c.v.z.L 1.q.k.l.R y 4.M.b.b.v.b.c.c.c.c.c.~ 2.c.2.c.c.c.2.z.2.",
"k.c.c.c.k.c.c.c.c.V v H ~ c.k.c.c.c.c.b.v.x.~ l.k.c.c.c.j.k.l.j.k.W 1.5.Q q.k.l.j.U p 7.c.b.c.b.c.k.k.c.c.c.H c.~ ~ k.k.c.k.2.k.",
"H j.j.~ j.j.~ ~ ! t v H b R ~ ~ ~ j.j.v.H H L E ~ ~ ~ E E ~ R E R G L ~ L ~ L ~ W a d 4.~ ~ j.~ j.H ~ j.~ R b T V * b a R b j.b "
};
